   <svg width="28" height="28" viewBox="0 0 172 172" fill="none">
                  <path
                    d="M92.1291 2.54313C91.3298 1.7373 90.3789 1.09769 89.3312 0.661208C88.2836 0.224724 87.1598 0 86.0248 0C84.8899 0 83.7661 0.224724 82.7185 0.661208C81.6708 1.09769 80.7199 1.7373 79.9206 2.54313L2.54313 79.9207C1.7373 80.7199 1.09769 81.6708 0.661207 82.7185C0.224724 83.7662 0 84.89 0 86.0249C0 87.1599 0.224724 88.2836 0.661207 89.3313C1.09769 90.379 1.7373 91.3299 2.54313 92.1292C3.34648 92.926 4.29922 93.5564 5.34671 93.9842C6.39421 94.4121 7.51586 94.629 8.64735 94.6224H17.2449V154.805C17.2449 159.365 19.0565 163.739 22.2811 166.964C25.5058 170.188 29.8795 172 34.4399 172H137.61C142.17 172 146.544 170.188 149.769 166.964C152.993 163.739 154.805 159.365 154.805 154.805V94.6224H163.402C165.683 94.6224 167.869 93.7166 169.482 92.1043C171.094 90.4919 172 88.3051 172 86.0249C172.006 84.8934 171.79 83.7718 171.362 82.7243C170.934 81.6768 170.303 80.724 169.507 79.9207L92.1291 2.54313ZM34.4399 154.805V72.3549L86.0248 20.7698L137.61 72.3549V154.805H34.4399Z"
                    fill="orangered"
                  />
                </svg>