<svg width="18" height="6" viewBox="0 0 18 6" fill="none" xmlns="http://www.w3.org/2000/svg">
<path d="M7.5 6C7.21667 6 6.97933 5.904 6.788 5.712C6.596 5.52067 6.5 5.28333 6.5 5V4H8V4.5H10V3.5H7.5C7.21667 3.5 6.97933 3.404 6.788 3.212C6.596 3.02067 6.5 2.78333 6.5 2.5V1C6.5 0.716667 6.596 0.479 6.788 0.287C6.97933 0.0956664 7.21667 0 7.5 0H10.5C10.7833 0 11.021 0.0956664 11.213 0.287C11.4043 0.479 11.5 0.716667 11.5 1V2H10V1.5H8V2.5H10.5C10.7833 2.5 11.021 2.59567 11.213 2.787C11.4043 2.979 11.5 3.21667 11.5 3.5V5C11.5 5.28333 11.4043 5.52067 11.213 5.712C11.021 5.904 10.7833 6 10.5 6H7.5ZM14 6C13.7167 6 13.4793 5.904 13.288 5.712C13.096 5.52067 13 5.28333 13 5V4H14.5V4.5H16.5V3.5H14C13.7167 3.5 13.4793 3.404 13.288 3.212C13.096 3.02067 13 2.78333 13 2.5V1C13 0.716667 13.096 0.479 13.288 0.287C13.4793 0.0956664 13.7167 0 14 0H17C17.2833 0 17.5207 0.0956664 17.712 0.287C17.904 0.479 18 0.716667 18 1V2H16.5V1.5H14.5V2.5H17C17.2833 2.5 17.5207 2.59567 17.712 2.787C17.904 2.979 18 3.21667 18 3.5V5C18 5.28333 17.904 5.52067 17.712 5.712C17.5207 5.904 17.2833 6 17 6H14ZM1 6C0.716667 6 0.479333 5.904 0.288 5.712C0.0960001 5.52067 0 5.28333 0 5V1C0 0.716667 0.0960001 0.479 0.288 0.287C0.479333 0.0956664 0.716667 0 1 0H4C4.28333 0 4.521 0.0956664 4.713 0.287C4.90433 0.479 5 0.716667 5 1V2H3.5V1.5H1.5V4.5H3.5V4H5V5C5 5.28333 4.90433 5.52067 4.713 5.712C4.521 5.904 4.28333 6 4 6H1Z" fill="black"/>
</svg>
