<svg width="38" height="54" viewBox="0 0 38 54" fill="none" xmlns="http://www.w3.org/2000/svg">
<path d="M32.6016 18.4063C34.3402 17.1454 35.6351 15.3666 36.3007 13.3247C36.9664 11.2829 36.9688 9.08268 36.3074 7.0394C35.646 4.99612 34.3549 3.21461 32.619 1.95009C30.883 0.685576 28.7914 0.00294543 26.6438 0H10.175C8.02739 0.00294543 5.93578 0.685576 4.19987 1.95009C2.46396 3.21461 1.17283 4.99612 0.511454 7.0394C-0.149922 9.08268 -0.147602 11.2829 0.518082 13.3247C1.18377 15.3666 2.47865 17.1454 4.21723 18.4063C2.91197 19.3463 1.84888 20.5832 1.11563 22.0149C0.382389 23.4466 0 25.0321 0 26.6406C0 28.2492 0.382389 29.8347 1.11563 31.2664C1.84888 32.6981 2.91197 33.9349 4.21723 34.875C2.80536 35.8953 1.67916 37.261 0.946545 38.8414C0.213926 40.4218 -0.100564 42.1638 0.0332077 43.9006C0.166979 45.6374 0.74453 47.3108 1.71052 48.7603C2.67651 50.2099 3.99857 51.387 5.55003 52.1791C7.10148 52.9711 8.83034 53.3515 10.571 53.2837C12.3116 53.2159 14.0056 52.7022 15.4908 51.7919C16.9759 50.8816 18.2024 49.6051 19.0527 48.0848C19.903 46.5645 20.3486 44.8513 20.3469 43.1094V34.6086C21.4027 35.4994 22.6289 36.1659 23.9507 36.5673C25.2726 36.9687 26.6623 37.0967 28.0352 36.9434C29.4081 36.7901 30.7354 36.3588 31.9361 35.6757C33.1368 34.9927 34.1859 34.0722 35.0192 32.9704C35.8525 31.8686 36.4527 30.6087 36.7831 29.2673C37.1135 27.926 37.1673 26.5314 36.9411 25.1687C36.7148 23.8059 36.2134 22.5035 35.4673 21.3408C34.7213 20.1782 33.7462 19.1797 32.6016 18.4063ZM32.9407 10.1719C32.9343 11.8399 32.2688 13.4379 31.0893 14.6174C29.9098 15.7969 28.3119 16.4624 26.6438 16.4688H20.3469V3.875H26.6438C28.3119 3.88138 29.9098 4.54685 31.0893 5.72636C32.2688 6.90587 32.9343 8.5038 32.9407 10.1719ZM3.87816 10.1719C3.88454 8.5038 4.55001 6.90587 5.72952 5.72636C6.90904 4.54685 8.50697 3.88138 10.175 3.875H16.4719V16.4688H10.175C8.50697 16.4624 6.90904 15.7969 5.72952 14.6174C4.55001 13.4379 3.88454 11.8399 3.87816 10.1719V10.1719ZM3.87816 26.6406C3.88454 24.9726 4.55001 23.3746 5.72952 22.1951C6.90904 21.0156 8.50697 20.3501 10.175 20.3438H16.4719V32.9375H10.175C8.50697 32.9311 6.90904 32.2657 5.72952 31.0861C4.55001 29.9066 3.88454 28.3087 3.87816 26.6406ZM10.175 49.4063C8.505 49.4063 6.90337 48.7428 5.72248 47.5619C4.54158 46.381 3.87816 44.7794 3.87816 43.1094C3.87816 41.4393 4.54158 39.8377 5.72248 38.6568C6.90337 37.4759 8.505 36.8125 10.175 36.8125H16.4719V43.1094C16.4655 44.7774 15.8001 46.3754 14.6206 47.5549C13.441 48.7344 11.8431 49.3999 10.175 49.4063V49.4063ZM26.6438 32.9375C24.9738 32.9375 23.3721 32.2741 22.1912 31.0932C21.0103 29.9123 20.3469 28.3107 20.3469 26.6406C20.3469 24.9706 21.0103 23.369 22.1912 22.1881C23.3721 21.0072 24.9738 20.3438 26.6438 20.3438C28.3138 20.3438 29.9155 21.0072 31.0964 22.1881C32.2772 23.369 32.9407 24.9706 32.9407 26.6406C32.9407 28.3107 32.2772 29.9123 31.0964 31.0932C29.9155 32.2741 28.3138 32.9375 26.6438 32.9375V32.9375Z" fill="black"/>
</svg>
